<?xml version="1.0" standalone="no"?>
<!DOCTYPE svg PUBLIC "-//W3C//DTD SVG 20010904//EN"
 "http://www.w3.org/TR/2001/REC-SVG-20010904/DTD/svg10.dtd">
<svg version="1.0" xmlns="http://www.w3.org/2000/svg"
 width="225.000000pt" height="225.000000pt" viewBox="0 0 225.000000 225.000000"
 preserveAspectRatio="xMidYMid meet">
<metadata>
Created by potrace 1.11, written by Peter Selinger 2001-2013
</metadata>
<g transform="translate(0.000000,225.000000) scale(0.100000,-0.100000)"
fill="#000000" stroke="none">
<path d="M668 1953 c-35 -40 -52 -89 -52 -153 -1 -75 29 -176 55 -190 29 -16
47 -11 52 13 4 20 4 19 6 -4 0 -15 8 -32 17 -40 18 -15 11 -54 -14 -83 -13
-14 -17 -38 -17 -105 0 -80 1 -86 21 -89 22 -3 23 -1 37 78 6 34 32 97 53 131
30 48 64 74 132 100 79 29 212 23 292 -14 57 -27 110 -68 110 -87 0 -5 4 -10
8 -10 10 0 52 -85 52 -105 0 -8 4 -15 9 -15 5 0 11 -18 15 -40 3 -22 11 -40
17 -40 10 0 8 84 -5 273 -3 47 -1 54 9 41 9 -13 20 -15 48 -10 30 6 38 13 52
49 44 117 32 246 -28 295 -12 11 -14 6 -10 -30 3 -24 0 -62 -6 -84 -14 -51
-76 -134 -100 -134 -10 0 -44 11 -76 25 -77 34 -80 27 -4 -10 33 -15 56 -31
52 -35 -12 -11 -106 -21 -120 -12 -6 4 -16 23 -22 42 -9 33 -10 32 -4 -14 9
-75 9 -79 -2 -83 -6 -2 -27 13 -48 32 -32 30 -37 32 -37 15 0 -17 -7 -20 -50
-20 -27 0 -51 5 -51 10 -1 6 -2 15 -3 20 -2 19 -16 15 -45 -12 -54 -51 -57
-44 -34 90 3 17 3 32 0 32 -4 0 -47 -18 -98 -40 l-92 -41 -29 28 c-63 59 -92
154 -68 217 11 30 0 34 -22 9z m15 -155 c9 -21 29 -55 44 -75 16 -22 20 -32 9
-23 -10 8 -33 13 -51 11 -26 -2 -36 3 -45 19 -16 30 -16 108 0 155 l14 40 7
-45 c4 -25 14 -62 22 -82z m886 81 c14 -41 13 -115 -3 -159 -10 -29 -18 -35
-39 -34 -15 1 -27 -3 -27 -9 0 -5 -6 -4 -14 2 -11 9 -15 9 -18 0 -2 -7 -9 -9
-16 -5 -8 5 -6 13 8 29 33 35 80 137 80 174 0 42 15 43 29 2z m-609 -124 c0
-3 -7 -21 -15 -41 -13 -31 -17 -34 -35 -24 -11 6 -26 10 -33 9 -40 -5 -35 5
13 31 55 29 70 34 70 25z"/>
<path d="M94 1885 c26 -140 224 -406 424 -568 60 -49 71 -54 105 -49 51 6 48
30 -8 65 -58 37 -69 54 -16 28 22 -12 44 -21 49 -21 7 0 32 85 32 110 0 4 -11
11 -25 14 -13 3 -49 26 -80 51 -30 25 -58 45 -61 45 -4 0 -34 14 -67 31 -85
43 -196 138 -285 243 -75 90 -75 90 -68 51z m92 -110 c27 -33 42 -54 33 -48
-9 7 -19 10 -22 7 -3 -4 -12 0 -20 8 -15 15 -57 92 -57 105 0 8 0 9 66 -72z
m265 -312 c13 -16 12 -17 -3 -4 -10 7 -18 15 -18 17 0 8 8 3 21 -13z"/>
<path d="M2081 1878 c-37 -55 -203 -216 -261 -254 -48 -32 -112 -64 -127 -64
-6 0 -18 -10 -29 -21 -36 -40 -102 -79 -133 -79 -29 0 -31 -2 -25 -27 16 -72
25 -103 31 -103 3 0 31 14 62 31 51 29 53 29 26 6 -16 -14 -45 -34 -62 -44
-49 -26 -43 -49 13 -57 25 -3 53 -2 61 2 8 5 54 44 102 88 159 145 283 298
341 421 28 59 49 143 37 143 -3 0 -19 -19 -36 -42z m1 -45 c-24 -58 -54 -101
-77 -111 -15 -7 -29 -11 -31 -9 -3 3 106 137 112 137 2 0 0 -8 -4 -17z"/>
<path d="M1235 1760 c3 -5 8 -10 11 -10 2 0 4 5 4 10 0 6 -5 10 -11 10 -5 0
-7 -4 -4 -10z"/>
<path d="M725 1263 c5 -10 11 -38 16 -63 l7 -45 -1 50 c-1 58 -5 75 -19 75 -6
0 -7 -7 -3 -17z"/>
<path d="M1452 1220 c0 -14 2 -19 5 -12 2 6 2 18 0 25 -3 6 -5 1 -5 -13z"/>
<path d="M618 1173 c-26 -4 -28 -7 -28 -56 0 -29 5 -70 10 -92 14 -60 -6 -85
-69 -85 -35 0 -58 -7 -87 -26 -21 -15 -40 -30 -42 -35 -5 -12 -147 -11 -212 1
-29 6 -66 16 -82 24 -15 8 -28 11 -28 8 0 -14 59 -95 98 -136 l41 -43 -6 -70
c-3 -39 -3 -87 1 -108 6 -32 11 -36 30 -33 21 4 22 2 18 -47 -4 -51 -4 -52 44
-92 71 -59 207 -144 348 -218 67 -36 126 -65 129 -65 4 0 7 10 7 23 0 39 12
70 21 56 6 -10 11 -10 22 0 10 8 17 8 21 2 4 -6 13 -8 21 -4 11 4 6 12 -21 32
-95 69 -121 99 -139 164 -10 34 -20 85 -24 112 -6 50 -6 50 -43 50 -49 1 -82
20 -104 61 -11 19 -24 32 -31 29 -7 -2 -13 0 -13 6 0 5 8 13 18 17 13 5 9 8
-18 13 l-35 6 31 2 c28 1 33 5 44 46 7 26 24 54 38 65 30 24 79 26 104 4 15
-14 20 -15 35 -3 16 13 17 12 5 -2 -10 -14 -10 -20 3 -32 20 -20 20 -96 0
-144 -8 -19 -15 -50 -15 -69 0 -44 27 -170 42 -197 11 -20 13 -16 19 40 4 34
14 74 22 90 l15 28 6 -25 c3 -14 7 -38 10 -55 2 -16 2 -2 1 32 -3 67 2 73 57
73 49 0 94 -27 111 -68 26 -62 29 -79 16 -122 -15 -48 -54 -80 -99 -80 -24 0
-31 -4 -28 -17 3 -16 142 -117 183 -133 21 -8 53 3 98 33 15 10 27 15 27 12 0
-4 7 1 16 9 8 9 22 16 30 16 8 0 13 4 10 8 -2 4 4 8 14 8 10 0 17 -4 14 -7 -2
-4 0 -10 6 -14 5 -3 10 -1 10 4 0 6 10 11 23 11 13 0 28 5 35 12 9 9 12 8 12
-5 0 -14 9 -17 46 -17 41 0 46 -2 41 -20 -3 -11 -2 -20 2 -20 4 0 59 27 122
59 233 119 409 243 409 288 0 14 8 32 18 39 14 10 17 29 17 111 l0 99 46 54
c50 60 89 115 89 124 0 4 -12 0 -27 -8 -35 -17 -153 -36 -229 -36 -52 0 -62 4
-91 32 -28 27 -42 32 -92 36 -86 6 -93 17 -81 126 6 48 8 92 5 97 -10 16 -33
10 -30 -8 1 -10 0 -12 -2 -5 -5 14 -44 32 -68 32 -9 0 -13 -13 -13 -42 1 -52
-11 -108 -22 -108 -5 0 -18 12 -29 26 -13 17 -21 21 -21 12 0 -14 21 -36 64
-68 18 -13 19 -13 11 0 -6 11 -3 10 12 -2 11 -10 29 -18 42 -18 12 0 24 -8 28
-17 3 -10 15 -28 25 -40 l20 -21 -76 1 c-45 1 -76 -2 -76 -8 -1 -5 -9 6 -19
25 -18 34 -19 34 -23 10 -3 -25 6 -51 42 -122 10 -21 15 -38 10 -38 -9 0 -40
62 -40 80 0 6 -3 9 -7 7 -5 -3 -7 -28 -7 -57 1 -37 -3 -53 -13 -57 -8 -3 -19
0 -24 8 -6 9 -9 -2 -9 -34 0 -30 -4 -46 -10 -42 -5 3 -10 20 -10 37 l0 31 -19
-21 c-18 -22 -39 -19 -21 2 5 7 5 18 0 26 -6 10 -12 5 -23 -21 -11 -28 -20
-35 -45 -37 -26 -2 -29 1 -25 18 3 11 10 20 16 20 6 0 8 3 4 6 -3 3 -37 -13
-75 -35 -96 -56 -122 -55 -230 10 -46 28 -87 47 -91 42 -3 -4 -21 -10 -38 -11
-32 -3 -33 -3 -33 37 0 32 4 41 17 41 15 0 14 2 -3 19 -19 18 -19 17 -29 -10
-5 -15 -13 -31 -17 -35 -5 -4 -8 -12 -8 -18 0 -6 5 -4 11 4 9 12 10 12 5 -3
-3 -11 -9 -30 -12 -43 -12 -49 -24 -10 -25 84 0 53 -4 117 -9 142 l-9 45 2
-55 2 -55 -60 6 c-33 3 -70 5 -83 4 l-23 -2 20 21 c12 12 21 27 21 33 0 6 17
13 39 17 21 3 44 13 51 21 7 8 18 15 26 15 7 0 15 8 18 18 9 26 10 101 3 109
-4 3 -7 -16 -7 -44 0 -38 -5 -54 -21 -69 -17 -16 -22 -16 -30 -4 -16 25 -29
83 -29 128 0 23 -3 41 -7 41 -5 -1 -20 -4 -35 -6z m979 -145 c-3 -8 -6 -5 -6
6 -1 11 2 17 5 13 3 -3 4 -12 1 -19z m-1417 -163 c30 -8 95 -15 143 -15 76 0
94 -3 120 -22 57 -40 61 -47 36 -57 -17 -6 -36 -2 -71 16 -89 45 -168 44 -168
-2 0 -14 -3 -25 -7 -25 -16 1 -133 120 -117 120 5 0 34 -7 64 -15z m1930 6 c0
-11 -101 -111 -111 -111 -4 0 -9 10 -11 22 -5 37 -53 44 -123 18 -135 -48
-163 -44 -93 13 42 33 45 34 143 35 82 1 139 10 193 31 1 1 2 -3 2 -8z m-1740
-91 c8 -5 24 -19 35 -31 13 -16 14 -19 3 -11 -13 11 -20 11 -37 0 -12 -7 -21
-17 -22 -23 0 -5 -19 -25 -41 -44 -48 -42 -71 -35 -76 23 l-3 37 37 -16 c45
-19 54 -12 26 18 -22 23 -28 48 -15 60 7 8 69 -1 93 -13z m1580 -5 c10 -12 8
-20 -9 -41 -28 -35 -26 -46 5 -34 14 6 30 10 35 10 17 0 9 -60 -11 -80 -18
-18 -22 -19 -36 -6 -8 9 -15 19 -16 23 -1 4 -12 19 -25 33 -13 14 -26 33 -29
43 -5 15 -16 21 -36 18 -19 -3 -5 10 30 28 45 24 75 26 92 6z m-316 -27 c14
-6 34 -28 43 -49 15 -31 24 -39 48 -40 l30 -2 -30 -4 -30 -5 25 -14 c25 -13
25 -13 3 -14 -16 0 -23 -6 -23 -20 0 -57 -62 -120 -117 -120 -46 0 -98 51
-109 105 -7 41 8 118 29 143 25 31 87 41 131 20z m-544 -129 c0 -4 -16 -24
-34 -43 -28 -28 -37 -32 -46 -21 -20 25 36 90 67 78 7 -3 13 -9 13 -14z m-105
-50 c0 -5 19 -34 43 -64 l43 -55 45 54 c24 30 44 59 44 65 0 6 5 11 10 11 19
0 10 -23 -40 -93 -41 -58 -50 -79 -51 -116 l-1 -46 -8 40 c-4 22 -6 42 -5 46
2 3 -20 36 -49 74 -35 45 -52 74 -48 87 4 18 17 16 17 -3z m326 -124 c5 -65 6
-66 7 -18 1 28 6 54 11 57 10 7 41 -98 41 -141 0 -42 -89 -132 -106 -108 -6 8
-26 18 -45 21 -52 10 -69 22 -85 59 -20 49 -17 102 7 141 31 51 57 65 114 62
l50 -3 6 -70z"/>
<path d="M1571 741 c-37 -10 -64 -53 -69 -113 -3 -44 0 -59 20 -88 21 -31 29
-35 67 -35 61 0 86 34 86 115 0 86 -43 136 -104 121z m39 -28 c0 -13 -13 -27
-52 -56 l-38 -28 0 30 c0 16 7 37 16 45 15 16 74 23 74 9z"/>
<path d="M822 1150 c0 -14 2 -19 5 -12 2 6 2 18 0 25 -3 6 -5 1 -5 -13z"/>
<path d="M811 1064 c0 -11 3 -14 6 -6 3 7 2 16 -1 19 -3 4 -6 -2 -5 -13z"/>
<path d="M803 910 c0 -30 2 -43 4 -27 2 15 2 39 0 55 -2 15 -4 2 -4 -28z"/>
<path d="M597 768 c-61 -47 -53 -173 14 -208 81 -44 149 111 83 189 -28 33
-67 41 -97 19z m66 -14 c8 -8 -25 -44 -41 -44 -18 0 -43 -26 -34 -35 4 -5 1
-5 -5 -1 -18 10 -16 46 4 68 15 17 63 25 76 12z"/>
<path d="M815 150 c27 -12 43 -12 25 0 -8 5 -22 9 -30 9 -10 0 -8 -3 5 -9z"/>
</g>
</svg>
